<?xml version="1.0" encoding="utf-8"?>
<!-- Generator: Adobe Illustrator 26.0.1, SVG Export Plug-In . SVG Version: 6.00 Build 0)  -->
<svg version="1.1" id="Layer_1" xmlns="http://www.w3.org/2000/svg" xmlns:xlink="http://www.w3.org/1999/xlink" x="0px" y="0px"
	 viewBox="0 0 30 30" style="enable-background:new 0 0 30 30;" xml:space="preserve">
<style type="text/css">
	.st0{fill:#FFFFFF;}
</style>
<path class="st0" d="M27.1,25.4l-4.6-4.6C26.4,16,25.6,8.9,20.8,5S8.8,1.8,4.9,6.7S1.8,18.6,6.7,22.5c4.1,3.3,10,3.3,14.1,0l4.6,4.6
	c0.5,0.5,1.3,0.5,1.8,0l0,0C27.6,26.6,27.6,25.8,27.1,25.4z M13.8,22.5C9,22.5,5,18.6,5,13.7S8.9,5,13.8,5s8.8,3.9,8.8,8.8
	S18.6,22.5,13.8,22.5z"/>
</svg>
