<svg xmlns="http://www.w3.org/2000/svg" viewBox="0 0 60 60"><defs><style>.cls-1,.cls-4{fill:#fff;}.cls-2{fill:#038d40;}.cls-2,.cls-5{stroke:#000;stroke-miterlimit:10;stroke-width:0.25px;}.cls-3{fill:#d8041d;}.cls-4{opacity:0.63;}.cls-5{fill:none;}</style></defs><g id="Layer_1" data-name="Layer 1"><path class="cls-1" d="M59.6,19.6,16,38.1a25.16,25.16,0,0,1-9.1,2.3A6.87,6.87,0,0,1,.8,37.5a6.77,6.77,0,0,1-.7-4.8,16.18,16.18,0,0,1,2.6-6.2,68.09,68.09,0,0,1,5.7-7,14,14,0,0,0-1.9,4.6c-.7,3-.1,5.1,1.9,6.5a6.86,6.86,0,0,0,3.8,1,18.48,18.48,0,0,0,4.4-.6Z"/></g><g id="Layer_4" data-name="Layer 4"><path class="cls-2" d="M21.5,20.41s0,.16,0,.41A3.65,3.65,0,0,0,21.5,20.41Z"/><path class="cls-2" d="M24,24.26a.45.45,0,0,0-.06.08A.24.24,0,0,0,24,24.26Z"/><path class="cls-2" d="M24.57,26.81l.05,0Z"/><path class="cls-2" d="M29,39.73s-1.84,0-2.17-1.17a1.35,1.35,0,0,1,.67-1.66,4.34,4.34,0,0,1-3.17-1c-.65-.72.17-1.48.17-1.48a5.56,5.56,0,0,0-1.66-.24,2.29,2.29,0,0,0,.37-1.28c2.72-1.76,2.38-2.79,2.38-2.79a1.18,1.18,0,0,1-2-1.11,3,3,0,0,1,1.05-2.19c-1.11.8-1-1.11-1-1.6a1.68,1.68,0,0,1,.34-.87,1,1,0,0,1-.69.15c-.68,0-1.15-.93-1.41-1.49a8.63,8.63,0,0,1-.3-2.18A3.28,3.28,0,0,1,20.63,23c-1.11,1.17-1.79,0-1.79,0,.32,1.8-.8,2.32-.8,2.32-1.29,1.1-2.17.31-2.17.31a2.11,2.11,0,0,1,.61,1.89,1.38,1.38,0,0,1-1.42.81A14,14,0,0,0,15.19,31c-.92.42-1.18,2.12-1.18,2.12-.86-.69-4.22-.67-3.77-.56a.45.45,0,0,1,.34.56c-.29,1.94-3.52,1-3.52,1s1,.54.36,2.19-2.91,1.58-2.91,1.58a.77.77,0,0,1,.63.61,2.64,2.64,0,0,1-1.82,2.78A19.52,19.52,0,0,1,6.6,41a1.39,1.39,0,0,1,1.47,1.73c.29,0,.37-.49.89-1.23a2.61,2.61,0,0,1,1.6-.88c1.82-.54,1.89,1.56,1.89,1.56.76-2,1.41-2,2.41-1.73s.56,1.55.56,1.55c1.42-.66,2.18-3.17,2.18-3.17a1.26,1.26,0,0,0,1.12.19,5.67,5.67,0,0,1-.56,1.78s.39-.81,2-.35,1.31,2.78,1.31,2.78a1.24,1.24,0,0,1,1.48-.9c1.28.13,1.46,1.76,1.46,1.76,1.82-1.91,4.48.18,4.48.18C27,41.08,29,39.73,29,39.73Z"/><path class="cls-3" d="M23.16,32.79a2.9,2.9,0,0,0-4.42-1.86,1.5,1.5,0,0,0-.41.61v0a2.65,2.65,0,0,0-3.13-.59A2.62,2.62,0,0,0,14,33.16c0,2.21,2.34,2.41,2.34,2.41l.11,0c-.05.21-.07.4-.1.6a2.43,2.43,0,0,0,2.36,2.66c2.1.18,3.24-2,2.36-3.84A2.33,2.33,0,0,0,23.16,32.79Z"/><ellipse class="cls-4" cx="17.26" cy="36.71" rx="0.36" ry="0.48"/><ellipse class="cls-4" cx="16.35" cy="31.64" rx="0.36" ry="0.48" transform="translate(-14.78 14.34) rotate(-33.61)"/><ellipse class="cls-4" cx="22.04" cy="32.77" rx="0.36" ry="0.48" transform="translate(-5.44 4.41) rotate(-10.17)"/></g><g id="Layer_3" data-name="Layer 3"><path class="cls-5" d="M14,33.16s.26-1.7,1.18-2.12a14,14,0,0,1-.13-2.71,1.38,1.38,0,0,0,1.42-.81,2.11,2.11,0,0,0-.61-1.89s.88.79,2.17-.31c0,0,1.12-.52.8-2.32,0,0,.68,1.17,1.79,0a3.25,3.25,0,0,0,.87-2.59A11.75,11.75,0,0,0,21.82,23c.26.56.73,1.48,1.41,1.49s.75-.23.75-.23a1.74,1.74,0,0,0-.4.95c0,.5-.13,2.47,1,1.57A2.83,2.83,0,0,0,23.52,29a1.18,1.18,0,0,0,2,1.11s.34,1-2.38,2.79a2.29,2.29,0,0,1-.37,1.28,5.56,5.56,0,0,1,1.66.24s-.82.76-.17,1.48a4.34,4.34,0,0,0,3.17,1,1.35,1.35,0,0,0-.67,1.66c.33,1.2,2.17,1.17,2.17,1.17s-1.95,1.35-.08,4.49c0,0-2.66-2.09-4.48-.18,0,0-.18-1.63-1.46-1.76a1.24,1.24,0,0,0-1.48.9s.29-2.32-1.31-2.78-2,.35-2,.35A5.28,5.28,0,0,0,18.7,39a1.43,1.43,0,0,1-1.1-.26s-.77,2.51-2.18,3.17c0,0,.43-1.27-.56-1.55s-1.65-.24-2.41,1.73c0,0-.07-2.1-1.89-1.56a2.61,2.61,0,0,0-1.6.88c-.52.74-.6,1.19-.89,1.23A1.39,1.39,0,0,0,6.6,41a19.52,19.52,0,0,0-3.28.32,2.64,2.64,0,0,0,1.82-2.78.77.77,0,0,0-.63-.61S6.76,38,7.42,36.3s-.36-2.19-.36-2.19,3.23,1,3.52-1a.45.45,0,0,0-.34-.56C9.79,32.49,13.15,32.47,14,33.16Z"/><path class="cls-5" d="M18.25,34s-.51-2.17.5-3a2.91,2.91,0,0,1,4.41,1.87"/><path class="cls-5" d="M22.79,34.18a3.4,3.4,0,0,1-1.7,1"/><path class="cls-5" d="M17.61,34.18s2.6-.9,3.48,1A2.55,2.55,0,0,1,18.72,39a2.43,2.43,0,0,1-2.36-2.66A2.47,2.47,0,0,1,17.61,34.18Z"/><path class="cls-5" d="M16.35,35.68s-2.41-.31-2.34-2.52"/><path class="cls-5" d="M15.19,31a2.65,2.65,0,0,1,3.13.59"/><path class="cls-5" d="M21.35,36.88a27.48,27.48,0,0,1,7.36,7.27"/><path d="M26.62,39.62a6.41,6.41,0,0,1-1.16-.1c-.39-.06-.77-.13-1.16-.21l.07-.24,1.11.32A5.62,5.62,0,0,0,26.62,39.62Z"/><path d="M24.21,38.92a4.76,4.76,0,0,1,.33,1.88,9,9,0,0,1-.21,1.87,9.67,9.67,0,0,0,.09-1.86A4.65,4.65,0,0,0,24,39.05Z"/><path d="M21.38,41a11.27,11.27,0,0,0,.4-1.9,7.71,7.71,0,0,0,0-1,2.94,2.94,0,0,0-.17-.91l.23-.11a3,3,0,0,1,.12,1,5.34,5.34,0,0,1-.1,1A10.89,10.89,0,0,1,21.38,41Z"/><path d="M21.91,37.14a10.12,10.12,0,0,0,1.23,0,3.48,3.48,0,0,0,1.19-.3,3.64,3.64,0,0,1-1.17.42,10.17,10.17,0,0,1-1.25.18Z"/><path class="cls-5" d="M15.9,35.57S7.11,38.91,4.13,41.14"/><path d="M9.3,38.43a24,24,0,0,0-1,3,24.71,24.71,0,0,1,.72-3.06Z"/><path d="M8.77,38.71a9.14,9.14,0,0,1-1.17,0A5.4,5.4,0,0,1,7,38.6a1.12,1.12,0,0,1-.53-.24,1.12,1.12,0,0,0,.54.18,5.43,5.43,0,0,0,.57,0,8.93,8.93,0,0,0,1.15-.1Z"/><path d="M12.31,37.15a4.94,4.94,0,0,1-3.13-.92,4.8,4.8,0,0,0,3.1.67Z"/><path d="M12.2,37.19A10.45,10.45,0,0,0,12,38.66a3.36,3.36,0,0,0,.1,1.48,3.43,3.43,0,0,1-.23-1.49A12.94,12.94,0,0,1,12,37.14Z"/><path d="M15.09,36a6.05,6.05,0,0,0-.83,3.2,6.2,6.2,0,0,1,.61-3.32Z"/><path d="M14.88,36.1a3,3,0,0,1-1.65-.55,4.39,4.39,0,0,1-1.16-1.23,4.56,4.56,0,0,0,1.23,1.13,2.81,2.81,0,0,0,1.55.4Z"/><path class="cls-5" d="M21.5,21.1s-1,8.16-1.94,9.53"/><path d="M22.63,29.63a3.78,3.78,0,0,0-1.48.28c-.47.17-.94.36-1.4.57l-.1-.22c.49-.18,1-.34,1.47-.47A3.86,3.86,0,0,1,22.63,29.63Z"/><path d="M20.3,28a7,7,0,0,1,1.3-.81,3.72,3.72,0,0,1,1.46-.38,4.92,4.92,0,0,0-2.59,1.37Z"/><path d="M20.8,25.34a5.36,5.36,0,0,1,.59-.38A1.54,1.54,0,0,1,22,24.7a1.53,1.53,0,0,0-.58.36l-.5.47Z"/><path d="M20.72,25.7a1.46,1.46,0,0,0-.3-.56,2.11,2.11,0,0,0-.5-.44,2.09,2.09,0,0,1,.59.35,1.74,1.74,0,0,1,.45.58Z"/><path d="M20.21,28.3A2.12,2.12,0,0,0,19.5,27a3.67,3.67,0,0,0-1.38-.73,3.67,3.67,0,0,1,1.46.64,2.31,2.31,0,0,1,.88,1.37Z"/><path d="M19.49,30.49a2.14,2.14,0,0,0-.45-.61,3.77,3.77,0,0,0-.64-.47,5.71,5.71,0,0,0-1.51-.56,5.86,5.86,0,0,1,1.57.45,3.43,3.43,0,0,1,.7.44,2,2,0,0,1,.56.66Z"/></g></svg>