<?xml version="1.0" encoding="utf-8"?>
<!-- Generator: Adobe Illustrator 25.4.1, SVG Export Plug-In . SVG Version: 6.00 Build 0)  -->
<svg version="1.1" id="Layer_1" xmlns="http://www.w3.org/2000/svg" xmlns:xlink="http://www.w3.org/1999/xlink" x="0px" y="0px"
	 viewBox="0 0 30 30" style="enable-background:new 0 0 30 30;" xml:space="preserve">
<style type="text/css">
	.st0{fill:#AA8375;}
</style>
<path class="st0" d="M23.6,12.8h-1.8v-2.1c0-1.2-0.3-2.4-0.9-3.5s-1.5-1.9-2.5-2.5c-1.1-0.6-2.2-0.9-3.5-0.9s-2.4,0.3-3.5,0.9
	S9.4,6.2,8.9,7.2C8.2,8.2,8,9.4,7.9,10.6v2.1H6.2c-0.2,0-0.3,0.1-0.4,0.2c-0.1,0.1-0.2,0.2-0.2,0.4v12.4c0,0.1,0.1,0.3,0.2,0.4
	s0.2,0.1,0.4,0.1h17.4c0.1,0,0.2,0,0.3-0.1s0.1-0.2,0.1-0.4V13.3c0-0.1,0-0.3-0.1-0.4C23.7,12.8,23.6,12.8,23.6,12.8z M16,20.3v2.3
	c0,0.1-0.1,0.2-0.2,0.2h-1.8c-0.2,0-0.3-0.1-0.3-0.2v-2.3c-0.3-0.2-0.6-0.5-0.8-0.8c-0.2-0.4-0.3-0.7-0.3-1.1c0-0.6,0.2-1.1,0.7-1.6
	c0.4-0.4,1-0.7,1.6-0.7c0.6,0,1.2,0.2,1.6,0.7c0.4,0.5,0.7,1,0.7,1.6c0,0.4-0.1,0.8-0.3,1.1C16.6,19.9,16.3,20.1,16,20.3z
	 M19.4,12.8h-9.2v-2.2c0-1.2,0.5-2.3,1.4-3.2s2-1.4,3.3-1.4c1.3,0,2.4,0.4,3.3,1.4c0.9,0.9,1.4,2,1.4,3.2V12.8z"/>
</svg>
